# File created by Blade
# Date/Time:  Tue Jan 27 18:05:41 2015
# Frame Rate: 120.000 fps
#------------------------------------------------------
:FULLY-SPECIFIED
:DEGREES
3653
root -1.410870 31.931217 -6.320430 5.566711 -1.978305 1.933201
Spine -5.991517 -18.646998 -2.629036
Head 12.831974 9.142763 0.478464
LeftShoulder -12.433095 17.808257 9.284249
LeftArm 22.170706 34.787752 -72.570847
LeftForeArm -1.740527 0.000000 17.264144
LeftHand -11.674150 -0.000000 -1.917372
LeftHandThumb1 -26.253704 0.000000 33.147579
RightShoulder -12.539171 8.896770 -41.024206
RightArm 11.761175 42.389101 25.599997
RightForeArm 21.791832 -0.000000 105.060874
RightHand -7.431313 -0.000000 9.902006
RightHandThumb1 -24.326973 -0.000000 -32.862282
LeftUpLeg 0.188327 4.818392 -0.577278
LeftLeg 0.718254 -0.000000 -0.000000
LeftFoot -20.057017 19.083467 -26.418804
LeftToeBase 8.625194 -0.000000 -0.000000
RightUpLeg -0.167015 1.209563 -3.204986
RightLeg -2.411297 -0.000000 0.000000
RightFoot -13.415328 -10.536228 9.354583
RightToeBase 4.536692 -0.000000 -0.000000
3654
root -1.407765 31.930136 -6.320433 5.550401 -1.956106 1.915713
Spine -5.984404 -18.641057 -2.685309
Head 12.702283 8.809685 0.693995
LeftShoulder -12.449411 17.835802 9.315544
LeftArm 22.226765 34.775988 -72.538281
LeftForeArm -1.723114 0.000000 17.322504
LeftHand -11.689277 -0.000000 -2.009264
LeftHandThumb1 -26.253704 0.000000 33.147579
RightShoulder -12.600296 8.586036 -41.057313
RightArm 12.007834 39.820382 24.594490
RightForeArm 21.201465 -0.000000 103.602481
RightHand -7.513493 -0.000000 10.070949
RightHandThumb1 -24.326973 -0.000000 -32.862282
LeftUpLeg 0.199778 4.819784 -0.558912
LeftLeg 0.721919 -0.000000 -0.000000
LeftFoot -20.076761 19.051888 -26.398540
LeftToeBase 8.684155 -0.000000 -0.000000
RightUpLeg -0.168279 1.186693 -3.190560
RightLeg -2.364867 -0.000000 0.000000
RightFoot -13.440424 -10.520211 9.373395
RightToeBase 4.557275 -0.000000 -0.000000
3655
root -1.403411 31.928537 -6.322015 5.538374 -1.934440 1.912503
Spine -5.946476 -18.620643 -2.775062
Head 12.595723 8.544587 0.972186
LeftShoulder -12.489899 17.845254 9.355338
LeftArm 22.320828 34.780027 -72.497329
LeftForeArm -1.651882 -0.000000 17.336121
LeftHand -11.665466 -0.000000 -1.860995
LeftHandThumb1 -26.253704 0.000000 33.147579
RightShoulder -12.736180 8.289229 -41.064235
RightArm 12.354260 37.298213 23.603629
RightForeArm 20.409574 -0.000000 102.108580
RightHand -7.542022 0.000000 10.811496
RightHandThumb1 -24.326973 -0.000000 -32.862282
LeftUpLeg 0.202572 4.806202 -0.566565
LeftLeg 0.735604 -0.000000 -0.000000
LeftFoot -20.089877 19.069843 -26.365796
LeftToeBase 8.658009 -0.000000 -0.000000
RightUpLeg -0.175075 1.174531 -3.194189
RightLeg -2.322813 -0.000000 0.000000
RightFoot -13.472381 -10.516134 9.364701
RightToeBase 4.591162 -0.000000 -0.000000
3656
root -1.399799 31.926983 -6.323901 5.530648 -1.911883 1.900770
Spine -5.923229 -18.618265 -2.845899
Head 12.477845 8.203334 1.195161
LeftShoulder -12.532657 17.871916 9.380660
LeftArm 22.410059 34.797766 -72.441903
LeftForeArm -1.608638 -0.000000 17.384352
LeftHand -11.744973 -0.000000 -1.745335
LeftHandThumb1 -26.253704 0.000000 33.147579
RightShoulder -12.817695 8.083845 -41.045441
RightArm 12.656294 34.687832 22.478235
RightForeArm 19.462681 -0.000000 100.601975
RightHand -7.640181 -0.000000 11.356533
RightHandThumb1 -24.326973 -0.000000 -32.862282
LeftUpLeg 0.196871 4.804739 -0.559345
LeftLeg 0.750463 -0.000000 -0.000000
LeftFoot -20.124849 19.034939 -26.390402
LeftToeBase 8.735697 -0.000000 -0.000000
RightUpLeg -0.181962 1.178705 -3.188457
RightLeg -2.291037 -0.000000 0.000000
RightFoot -13.504798 -10.527661 9.393214
RightToeBase 4.595179 -0.000000 -0.000000
